# xmcd
#
# Track frame offsets: 
#        150
#        12340
#        22495
#        31693
#        43270
#        56197
#        69458
#        77954
#        92217
#        101723
#        113287
#        128029
#        138434
#        156467
#        168869
#        183872
#        194922
#        208788
#        221437
#        235424
#
# Disc length: 3347 seconds
#
# Revision: 2
# Processed by: cddbd v1.5.2PL0 Copyright (c) Steve Scherf et al.
# Submitted via: ExactAudioCopy v1.1
#
DISCID=260d1114
DTITLE=Ronny - Das Beste - CD2
DYEAR=1900
DGENRE=Pop-Folk
TTITLE0=Oh My Darling Caroline
TTITLE1=Eine kleine Träne
TTITLE2=Geisterreiter
TTITLE3=Sweet Marylie (Home On The Range)
TTITLE4=Welcome Stranger
TTITLE5=Mexikanische Serenade 
TTITLE6=Fern in Idaho
TTITLE7=Bei dir am Red River (Red River Valley)
TTITLE8=Oh Susanne
TTITLE9=Little Donna Elisa von Kingstondown
TTITLE10=Wabash Cannonball
TTITLE11=Jesse James
TTITLE12=Down by The Banks Of The Ohio
TTITLE13=Valerie Valera
TTITLE14=The Green Valleys Of Home
TTITLE15=Cheerio
TTITLE16=San Antonio Rose
TTITLE17=Oh, Shenandoah
TTITLE18=Billy Joe
TTITLE19=Keiner kann den Kreis druchbrechen
EXTD=
EXTT0=
EXTT1=
EXTT2=
EXTT3=
EXTT4=
EXTT5=
EXTT6=
EXTT7=
EXTT8=
EXTT9=
EXTT10=
EXTT11=
EXTT12=
EXTT13=
EXTT14=
EXTT15=
EXTT16=
EXTT17=
EXTT18=
EXTT19=
PLAYORDER=
